# xmcd
#
# Track frame offsets: 
#        150
#        17150
#        35885
#        55442
#        81700
#        99915
#        118757
#        138545
#        160222
#        185057
#        207770
#        232475
#        254827
#        276797
#        297177
#        317715
#        337785
#
# Disc length: 4769 seconds
#
# Revision: 1
# Processed by: cddbd v1.5.2PL0 Copyright (c) Steve Scherf et al.
# Submitted via: ExactAudioCopy v0.99pb5
#
DISCID=10129f11
DTITLE=Various Artist - Solar Disco Box Set CD3
DYEAR=2004
DGENRE=Disco
TTITLE0=Shalamar - Sweeter As The Days Go By
TTITLE1=Whispers - I'm The One For You
TTITLE2=Midnight Star - Feels So Good
TTITLE3=Carrie (Lucas) - Show Me Where You're Coming From
TTITLE4=Collage - Get In Touch With Me
TTITLE5=The Deele - Two Occasions
TTITLE6=Babyface - Lovers
TTITLE7=Cat Miller - Be For Real
TTITLE8=Leroy Hutson - Classy Lady
TTITLE9=Whispers - Lady
TTITLE10=Dynasty - Do Me Right
TTITLE11=Sylvers - Come Back Lover, Come Back
TTITLE12=Midnight Star - Curious
TTITLE13=Collage - Winners And Losers
TTITLE14=Shalamar - Over And Over
TTITLE15=Calloway - Let's Get Smooth
TTITLE16=Bobby Womack - Save The Children
EXTD=
EXTT0=
EXTT1=
EXTT2=
EXTT3=
EXTT4=
EXTT5=
EXTT6=
EXTT7=
EXTT8=
EXTT9=
EXTT10=
EXTT11=
EXTT12=
EXTT13=
EXTT14=
EXTT15=
EXTT16=
PLAYORDER=
